<?xml version="1.0" encoding="UTF-8" standalone="no"?>
<!DOCTYPE svg PUBLIC "-//W3C//DTD SVG 1.1//EN" "http://www.w3.org/Graphics/SVG/1.1/DTD/svg11.dtd">
<svg width="100%" height="100%" viewBox="0 0 4961 3508" version="1.1" xmlns="http://www.w3.org/2000/svg" xmlns:xlink="http://www.w3.org/1999/xlink" xml:space="preserve" xmlns:serif="http://www.serif.com/" style="fill-rule:evenodd;clip-rule:evenodd;stroke-linecap:round;stroke-linejoin:round;stroke-miterlimit:1.5;">
    <g transform="matrix(-1,0,0,-1,4349.45,3173.76)">
        <path d="M3155.9,1743.21C3171.7,1741.54 3186.94,1749.6 3194.46,1763.6C3264.06,1892.57 3344.34,2021.38 3433.17,2150.05C3466.72,2198.63 3471.26,2261.6 3445.05,2314.5C3418.83,2367.4 3365.98,2401.92 3307,2404.66C2907.95,2423.19 2185.9,2456.71 1591.28,2484.31C1588.49,2484.44 1585.78,2483.42 1583.76,2481.5C1581.75,2479.58 1580.61,2476.91 1580.61,2474.12C1580.61,2430.07 1544.84,2394.3 1500.79,2394.3C1456.74,2394.3 1420.97,2430.07 1420.97,2474.12L1420.97,2474.65C1421.02,2484.46 1413.32,2492.57 1403.52,2493.02C1394.59,2493.44 1385.96,2493.84 1385.96,2493.84C1364.09,2430.57 1303.96,2385.07 1233.29,2385.07C1173.44,2385.07 1121.15,2417.7 1093.26,2466.12C1077.93,2492.57 1050.22,2509.4 1019.69,2510.82L1019.69,2510.84C938.588,2514.61 861.695,2474.6 818.239,2406.01C774.783,2337.43 771.438,2250.82 809.475,2179.09L1277.86,1295.85C1296.72,1260.27 1311.7,1222.76 1322.53,1183.98C1322.53,1183.98 1388.05,949.308 1388.05,949.308C1403.08,895.512 1445.18,853.515 1499.01,838.629C1552.85,823.743 1610.54,838.144 1651.07,876.582C2008.02,1216.09 2346.15,1340.67 2642.1,984.584C2683.37,934.805 2749.74,913.431 2812.31,929.768C2874.88,946.105 2922.32,997.195 2933.99,1060.8C2934.01,1060.8 2934.01,1060.8 2934.01,1060.8C2959.44,1198.64 3001.28,1336.22 3056.98,1473.58C3069.74,1505.01 3066.49,1540.68 3048.25,1569.28C3037,1586.91 3030.47,1607.85 3030.47,1630.3C3030.47,1692.96 3081.34,1743.83 3143.99,1743.83C3148.01,1743.83 3151.99,1743.62 3155.9,1743.21Z" style="fill:url(#_Linear1);"/>
    </g>
    <g>
        <g>
            <g transform="matrix(1,0,0,1.09707,0,-88.5679)">
                <path d="M3171.76,1036.96C3171.76,1105.7 3110.53,1161.51 3035.12,1161.51L1228.97,1161.51C1153.55,1161.51 1092.32,1105.7 1092.32,1036.96C1092.32,1032.46 1092.59,1028.03 1093.1,1023.66C1097.56,985.909 1122.64,952.772 1159.77,935.565C1196.9,918.359 1241.05,919.412 1277.14,938.365C1808.59,1216.2 2380.01,1214.28 2991.36,932.979C3024.04,917.882 3062.37,916.741 3096.05,929.863C3129.74,942.984 3155.33,969.023 3165.94,1000.98C3169.73,1012.37 3171.76,1024.45 3171.76,1036.96Z" style="fill:url(#_Linear2);"/>
            </g>
            <g transform="matrix(0.769258,0,0,-0.78435,476.116,2194.32)">
                <path d="M3171.76,1036.96C3171.76,1105.7 3110.53,1161.51 3035.12,1161.51L1228.97,1161.51C1153.55,1161.51 1092.32,1105.7 1092.32,1036.96C1092.32,1008.95 1102.49,983.087 1119.63,962.273C1155.36,918.896 1217.57,906.718 1267.55,933.317C1803.93,1217.38 2381.11,1215.97 2999.03,929.437C3046.84,907.174 3103.88,918.213 3139.48,956.62C3159.62,978.303 3171.76,1006.35 3171.76,1036.96Z" style="fill:url(#_Linear3);"/>
            </g>
            <g transform="matrix(0.729884,-0.290604,0.240482,0.603997,-89.5552,806.742)">
                <ellipse cx="1325.11" cy="1443.39" rx="77.166" ry="111.976" style="fill:url(#_Linear4);"/>
            </g>
            <g transform="matrix(-1.349,-0.537105,-0.368276,0.924966,5335.66,933.164)">
                <ellipse cx="1325.11" cy="1443.39" rx="77.166" ry="111.976" style="fill:url(#_Linear5);"/>
            </g>
            <g transform="matrix(0.764226,-0.304278,0.311658,0.782762,-26.2598,1004.63)">
                <ellipse cx="1325.11" cy="1443.39" rx="77.166" ry="111.976" style="fill:url(#_Linear6);"/>
            </g>
            <g transform="matrix(-1.10176,-0.438668,-0.381954,0.95932,4822.27,913.154)">
                <ellipse cx="1325.11" cy="1443.39" rx="77.166" ry="111.976" style="fill:url(#_Linear7);"/>
            </g>
            <g transform="matrix(0.651266,-0.259302,0.214911,0.539772,353.855,1177.51)">
                <ellipse cx="1325.11" cy="1443.39" rx="77.166" ry="111.976" style="fill:url(#_Linear8);"/>
            </g>
            <g transform="matrix(-0.938909,-0.373828,-0.263386,0.661521,4261.8,1111.37)">
                <ellipse cx="1325.11" cy="1443.39" rx="77.166" ry="111.976" style="fill:url(#_Linear9);"/>
            </g>
            <g transform="matrix(0.545759,-0.118429,0.108135,0.498322,708.082,1195.87)">
                <ellipse cx="1325.11" cy="1443.39" rx="77.166" ry="111.976" style="fill:url(#_Linear10);"/>
            </g>
            <g transform="matrix(-0.748006,-0.29782,-0.231169,0.580607,3944.12,1337.6)">
                <ellipse cx="1325.11" cy="1443.39" rx="77.166" ry="111.976" style="fill:url(#_Linear11);"/>
            </g>
            <g transform="matrix(-0.748006,-0.29782,-0.231169,0.580607,4391.06,862.949)">
                <ellipse cx="1325.11" cy="1443.39" rx="77.166" ry="111.976" style="fill:url(#_Linear12);"/>
            </g>
            <g transform="matrix(0.557147,-0.124445,0.154982,0.693862,582.763,1067)">
                <ellipse cx="1325.11" cy="1443.39" rx="77.166" ry="111.976" style="fill:url(#_Linear13);"/>
            </g>
            <g transform="matrix(0.421784,-0.0942104,0.0863691,0.386679,962.566,1641.59)">
                <ellipse cx="1325.11" cy="1443.39" rx="77.166" ry="111.976" style="fill:url(#_Linear14);"/>
            </g>
            <g transform="matrix(-0.764635,-0.304441,-0.32231,0.809517,4180.44,1200.49)">
                <ellipse cx="1325.11" cy="1443.39" rx="77.166" ry="111.976" style="fill:url(#_Linear15);"/>
            </g>
            <g transform="matrix(-0.557498,-0.111913,-0.0892226,0.444465,3413.73,1474.56)">
                <ellipse cx="1325.11" cy="1443.39" rx="77.166" ry="111.976" style="fill:url(#_Linear16);"/>
            </g>
        </g>
        <g>
            <g transform="matrix(1.2809,0,0,1.37112,-365.073,-397.974)">
                <circle cx="1236.58" cy="1061.4" r="65.953" style="fill:rgb(31,13,49);"/>
            </g>
            <g transform="matrix(1.00034,0,0,1.07079,171.715,247.035)">
                <circle cx="1236.58" cy="1061.4" r="65.953" style="fill:rgb(31,13,49);"/>
            </g>
            <g transform="matrix(1.38424,0,0,1.42852,1334.54,-457.645)">
                <circle cx="1236.58" cy="1061.4" r="65.953" style="fill:rgb(31,13,49);"/>
            </g>
            <g transform="matrix(1.04281,0,0,1.07617,1535.32,239.888)">
                <circle cx="1236.58" cy="1061.4" r="65.953" style="fill:rgb(31,13,49);"/>
            </g>
        </g>
    </g>
    <g transform="matrix(0.937723,-9.58216e-18,1.20503e-17,-1.27765,2.47014,4688.3)">
        <path d="M1888.41,1982.33L1610.55,2740.59C1561.17,2875.34 1600.04,3019.28 1715.7,3130.02C1831.37,3240.77 2010.67,3305.7 2200.8,3305.7C2394.22,3305.7 2576.64,3239.64 2694.32,3126.97C2812,3014.3 2851.54,2867.86 2801.31,2730.76L2527.04,1982.33C2488.2,1876.33 2357.27,1802.67 2207.73,1802.67C2058.18,1802.67 1927.25,1876.33 1888.41,1982.33Z" style="fill:url(#_Linear17);"/>
    </g>
    <g transform="matrix(1.01669,-0.0053419,0.00517637,0.985187,239.872,-112.428)">
        <circle cx="1889.06" cy="1082.03" r="119.994" style="fill:rgb(240,255,4);"/>
    </g>
    <g transform="matrix(0.872612,-0.00458488,0.00444467,0.845927,512.247,37.4797)">
        <circle cx="1889.06" cy="1082.03" r="119.994" style="fill:url(#_Linear18);"/>
    </g>
    <g transform="matrix(1.38303,-0.0967675,0.069636,0.995257,-849.234,496.415)">
        <path d="M2015.82,801.468L2015.82,863.634C2015.82,904.369 1992.02,937.44 1962.7,937.44C1933.39,937.44 1909.59,904.369 1909.59,863.634L1909.59,801.468C1909.59,760.733 1933.39,727.661 1962.7,727.661C1992.02,727.661 2015.82,760.733 2015.82,801.468Z" style="fill:rgb(74,11,83);"/>
        <clipPath id="_clip19">
            <path d="M2015.82,801.468L2015.82,863.634C2015.82,904.369 1992.02,937.44 1962.7,937.44C1933.39,937.44 1909.59,904.369 1909.59,863.634L1909.59,801.468C1909.59,760.733 1933.39,727.661 1962.7,727.661C1992.02,727.661 2015.82,760.733 2015.82,801.468Z"/>
        </clipPath>
        <g clip-path="url(#_clip19)">
            <g transform="matrix(0.600774,0.0393878,-0.0746602,0.999871,823.444,179.871)">
                <ellipse cx="1970.46" cy="688.537" rx="91.801" ry="34.283" style="fill:rgb(255,247,248);"/>
            </g>
        </g>
    </g>
    <g transform="matrix(1.60908,0,0,1.31687,-1250.64,121.196)">
        <ellipse cx="1970.15" cy="789.664" rx="17.714" ry="21.671" style="fill:rgb(251,114,172);"/>
        <clipPath id="_clip20">
            <ellipse cx="1970.15" cy="789.664" rx="17.714" ry="21.671"/>
        </clipPath>
        <g clip-path="url(#_clip20)">
            <g transform="matrix(0.670182,0,0,0.87232,646.069,43.4207)">
                <path d="M2001.78,771.451C1973.65,840.917 1963.55,834.966 1974.94,860.87" style="fill:none;stroke:rgb(126,0,27);stroke-width:10.44px;"/>
            </g>
        </g>
    </g>
    <g transform="matrix(0.825028,-0.565092,0.565092,0.825028,-134.757,1493.17)">
        <path d="M1980.78,739.014C1980.78,764.358 1960.2,784.934 1934.86,784.934L1874.29,784.934C1848.95,784.934 1828.37,764.358 1828.37,739.014C1828.37,713.67 1848.95,693.094 1874.29,693.094L1934.86,693.094C1960.2,693.094 1980.78,713.67 1980.78,739.014Z" style="fill:rgb(42,14,70);"/>
    </g>
    <g transform="matrix(-0.825028,-0.565092,-0.565092,0.825028,3956.61,1483.09)">
        <path d="M1980.78,739.014C1980.78,764.358 1960.2,784.934 1934.86,784.934L1874.29,784.934C1848.95,784.934 1828.37,764.358 1828.37,739.014C1828.37,713.67 1848.95,693.094 1874.29,693.094L1934.86,693.094C1960.2,693.094 1980.78,713.67 1980.78,739.014Z" style="fill:rgb(42,14,70);"/>
    </g>
    <g transform="matrix(1,0,0,1,-98.3842,-219.792)">
        <path d="M2049.63,1125.43L2049.63,1180.4C2049.63,1201.63 2032.39,1218.87 2011.16,1218.87C1989.92,1218.87 1972.69,1201.63 1972.69,1180.4L1972.69,1125.43C1972.69,1104.2 1989.92,1086.96 2011.16,1086.96C2032.39,1086.96 2049.63,1104.2 2049.63,1125.43Z" style="fill:rgb(240,255,4);"/>
        <clipPath id="_clip21">
            <path d="M2049.63,1125.43L2049.63,1180.4C2049.63,1201.63 2032.39,1218.87 2011.16,1218.87C1989.92,1218.87 1972.69,1201.63 1972.69,1180.4L1972.69,1125.43C1972.69,1104.2 1989.92,1086.96 2011.16,1086.96C2032.39,1086.96 2049.63,1104.2 2049.63,1125.43Z"/>
        </clipPath>
        <g clip-path="url(#_clip21)">
            <g transform="matrix(1,0,0,1,17.1289,0.97357)">
                <path d="M2049.63,1125.43L2049.63,1180.4C2049.63,1201.63 2032.39,1218.87 2011.16,1218.87C1989.92,1218.87 1972.69,1201.63 1972.69,1180.4L1972.69,1125.43C1972.69,1104.2 1989.92,1086.96 2011.16,1086.96C2032.39,1086.96 2049.63,1104.2 2049.63,1125.43Z" style="fill:rgb(31,13,49);"/>
            </g>
        </g>
    </g>
    <g transform="matrix(0.60984,0.0632364,-0.0952734,0.918799,692.788,-206.467)">
        <circle cx="1889.06" cy="1082.03" r="119.994" style="fill:rgb(240,255,4);"/>
    </g>
    <g transform="matrix(0.472471,0.0765838,-0.128861,0.794985,998.711,-93.4154)">
        <circle cx="1889.06" cy="1082.03" r="119.994" style="fill:url(#_Linear22);"/>
    </g>
    <g transform="matrix(1.04675,0,0,1.02697,-167.268,253.346)">
        <ellipse cx="1807.48" cy="638.025" rx="8.778" ry="9.606" style="fill:rgb(255,247,248);"/>
    </g>
    <g transform="matrix(0.719542,0,0,0.740979,458.696,463.006)">
        <ellipse cx="1807.48" cy="638.025" rx="8.778" ry="9.606" style="fill:rgb(255,247,248);"/>
    </g>
    <g transform="matrix(1,0,0,1,341.587,299.628)">
        <ellipse cx="1807.48" cy="638.025" rx="8.778" ry="9.606" style="fill:rgb(255,247,248);"/>
    </g>
    <g transform="matrix(0.770733,0,0,0.690885,804.329,481.268)">
        <ellipse cx="1807.48" cy="638.025" rx="8.778" ry="9.606" style="fill:rgb(255,247,248);"/>
    </g>
    <g transform="matrix(1,0,0,1,-55.6876,299.913)">
        <path d="M1913.31,997.133C1962.89,1040.34 2024.6,1064.56 2073.67,978.692" style="fill:none;stroke:rgb(42,14,70);stroke-width:29.13px;"/>
    </g>
    <g transform="matrix(1,0,0,1,-116.038,-218.43)">
        <path d="M2297.05,1349.73C2413.71,1321.81 2448.59,1223.75 2457.93,1203.77" style="fill:none;stroke:rgb(42,14,70);stroke-width:29.13px;"/>
    </g>
    <g transform="matrix(1,0,0,1,-144.23,-220.223)">
        <path d="M1730.37,1193.46C1796.07,1186.33 1840.49,1264.62 1837.33,1342.5" style="fill:none;stroke:rgb(42,14,70);stroke-width:29.13px;"/>
    </g>
    <g transform="matrix(1,0,0,1,5.66145,-53.0588)">
        <path d="M1665.76,792.536C1675.98,780.427 1754.76,687.109 1851.74,724.412" style="fill:none;stroke:rgb(240,255,4);stroke-width:76.97px;"/>
    </g>
    <g transform="matrix(1.40198,0,0,1.55915,-902.084,-455.481)">
        <path d="M2121.4,630.47C2136.49,676.082 2255.66,723.467 2268.84,728.703" style="fill:none;stroke:rgb(240,255,4);stroke-width:51.91px;"/>
    </g>
    <defs>
        <linearGradient id="_Linear1" x1="0" y1="0" x2="1" y2="0" gradientUnits="userSpaceOnUse" gradientTransform="matrix(-103.923,2513.89,-2513.89,-103.923,2174.13,543.743)"><stop offset="0" style="stop-color:rgb(22,13,31);stop-opacity:1"/><stop offset="0.58" style="stop-color:rgb(32,13,51);stop-opacity:1"/><stop offset="0.8" style="stop-color:rgb(55,14,96);stop-opacity:1"/><stop offset="1" style="stop-color:rgb(77,15,140);stop-opacity:1"/></linearGradient>
        <linearGradient id="_Linear2" x1="0" y1="0" x2="1" y2="0" gradientUnits="userSpaceOnUse" gradientTransform="matrix(1599.33,1452.74,-1593.76,1457.82,935.909,415.431)"><stop offset="0" style="stop-color:rgb(95,195,0);stop-opacity:1"/><stop offset="0.52" style="stop-color:rgb(187,237,0);stop-opacity:1"/><stop offset="1" style="stop-color:rgb(221,253,0);stop-opacity:1"/></linearGradient>
        <linearGradient id="_Linear3" x1="0" y1="0" x2="1" y2="0" gradientUnits="userSpaceOnUse" gradientTransform="matrix(2079.05,-2031.94,-2071.81,-2039.05,597.709,2329.48)"><stop offset="0" style="stop-color:rgb(95,195,0);stop-opacity:1"/><stop offset="0.52" style="stop-color:rgb(187,237,0);stop-opacity:1"/><stop offset="1" style="stop-color:rgb(221,253,0);stop-opacity:1"/></linearGradient>
        <linearGradient id="_Linear4" x1="0" y1="0" x2="1" y2="0" gradientUnits="userSpaceOnUse" gradientTransform="matrix(1140.95,3187.63,-2637.84,1378.75,1419.69,-44.6776)"><stop offset="0" style="stop-color:rgb(95,195,0);stop-opacity:1"/><stop offset="0.52" style="stop-color:rgb(187,237,0);stop-opacity:1"/><stop offset="1" style="stop-color:rgb(221,253,0);stop-opacity:1"/></linearGradient>
        <linearGradient id="_Linear5" x1="0" y1="0" x2="1" y2="0" gradientUnits="userSpaceOnUse" gradientTransform="matrix(-1429.37,893.043,612.331,2084.63,2959.4,1106.57)"><stop offset="0" style="stop-color:rgb(95,195,0);stop-opacity:1"/><stop offset="0.52" style="stop-color:rgb(187,237,0);stop-opacity:1"/><stop offset="1" style="stop-color:rgb(221,253,0);stop-opacity:1"/></linearGradient>
        <linearGradient id="_Linear6" x1="0" y1="0" x2="1" y2="0" gradientUnits="userSpaceOnUse" gradientTransform="matrix(1089.68,2459.65,-2519.31,1063.87,1373.39,-280.484)"><stop offset="0" style="stop-color:rgb(95,195,0);stop-opacity:1"/><stop offset="0.52" style="stop-color:rgb(187,237,0);stop-opacity:1"/><stop offset="1" style="stop-color:rgb(221,253,0);stop-opacity:1"/></linearGradient>
        <linearGradient id="_Linear7" x1="0" y1="0" x2="1" y2="0" gradientUnits="userSpaceOnUse" gradientTransform="matrix(-1750.12,861.062,749.74,2009.98,3215.05,901.026)"><stop offset="0" style="stop-color:rgb(95,195,0);stop-opacity:1"/><stop offset="0.52" style="stop-color:rgb(187,237,0);stop-opacity:1"/><stop offset="1" style="stop-color:rgb(221,253,0);stop-opacity:1"/></linearGradient>
        <linearGradient id="_Linear8" x1="0" y1="0" x2="1" y2="0" gradientUnits="userSpaceOnUse" gradientTransform="matrix(1278.68,3566.91,-2956.27,1542.8,1199.04,-925.219)"><stop offset="0" style="stop-color:rgb(95,195,0);stop-opacity:1"/><stop offset="0.52" style="stop-color:rgb(187,237,0);stop-opacity:1"/><stop offset="1" style="stop-color:rgb(221,253,0);stop-opacity:1"/></linearGradient>
        <linearGradient id="_Linear9" x1="0" y1="0" x2="1" y2="0" gradientUnits="userSpaceOnUse" gradientTransform="matrix(-2053.68,1248.69,879.78,2914.82,3329.98,756.827)"><stop offset="0" style="stop-color:rgb(95,195,0);stop-opacity:1"/><stop offset="0.52" style="stop-color:rgb(187,237,0);stop-opacity:1"/><stop offset="1" style="stop-color:rgb(221,253,0);stop-opacity:1"/></linearGradient>
        <linearGradient id="_Linear10" x1="0" y1="0" x2="1" y2="0" gradientUnits="userSpaceOnUse" gradientTransform="matrix(2193.49,3719.54,-3396.24,2402.3,713.349,-1493.41)"><stop offset="0" style="stop-color:rgb(95,195,0);stop-opacity:1"/><stop offset="0.52" style="stop-color:rgb(187,237,0);stop-opacity:1"/><stop offset="1" style="stop-color:rgb(221,253,0);stop-opacity:1"/></linearGradient>
        <linearGradient id="_Linear11" x1="0" y1="0" x2="1" y2="0" gradientUnits="userSpaceOnUse" gradientTransform="matrix(-2577.81,1422.71,1104.31,3321.03,3917.2,337.935)"><stop offset="0" style="stop-color:rgb(95,195,0);stop-opacity:1"/><stop offset="0.52" style="stop-color:rgb(187,237,0);stop-opacity:1"/><stop offset="1" style="stop-color:rgb(221,253,0);stop-opacity:1"/></linearGradient>
        <linearGradient id="_Linear12" x1="0" y1="0" x2="1" y2="0" gradientUnits="userSpaceOnUse" gradientTransform="matrix(-2577.81,1422.71,1104.31,3321.03,4214.87,1308.13)"><stop offset="0" style="stop-color:rgb(95,195,0);stop-opacity:1"/><stop offset="0.52" style="stop-color:rgb(187,237,0);stop-opacity:1"/><stop offset="1" style="stop-color:rgb(221,253,0);stop-opacity:1"/></linearGradient>
        <linearGradient id="_Linear13" x1="0" y1="0" x2="1" y2="0" gradientUnits="userSpaceOnUse" gradientTransform="matrix(2125.58,2678.16,-3335.34,1706.77,870.952,-852.372)"><stop offset="0" style="stop-color:rgb(95,195,0);stop-opacity:1"/><stop offset="0.52" style="stop-color:rgb(187,237,0);stop-opacity:1"/><stop offset="1" style="stop-color:rgb(221,253,0);stop-opacity:1"/></linearGradient>
        <linearGradient id="_Linear14" x1="0" y1="0" x2="1" y2="0" gradientUnits="userSpaceOnUse" gradientTransform="matrix(2807.74,4805.73,-4405.75,3062.65,582.611,-3153.83)"><stop offset="0" style="stop-color:rgb(95,195,0);stop-opacity:1"/><stop offset="0.52" style="stop-color:rgb(187,237,0);stop-opacity:1"/><stop offset="1" style="stop-color:rgb(221,253,0);stop-opacity:1"/></linearGradient>
        <linearGradient id="_Linear15" x1="0" y1="0" x2="1" y2="0" gradientUnits="userSpaceOnUse" gradientTransform="matrix(-2521.74,1020.4,1080.3,2381.93,4037.16,488.907)"><stop offset="0" style="stop-color:rgb(95,195,0);stop-opacity:1"/><stop offset="0.52" style="stop-color:rgb(187,237,0);stop-opacity:1"/><stop offset="1" style="stop-color:rgb(221,253,0);stop-opacity:1"/></linearGradient>
        <linearGradient id="_Linear16" x1="0" y1="0" x2="1" y2="0" gradientUnits="userSpaceOnUse" gradientTransform="matrix(-3309.28,2752.53,2194.46,4150.87,4709.42,-1541.57)"><stop offset="0" style="stop-color:rgb(95,195,0);stop-opacity:1"/><stop offset="0.52" style="stop-color:rgb(187,237,0);stop-opacity:1"/><stop offset="1" style="stop-color:rgb(221,253,0);stop-opacity:1"/></linearGradient>
        <linearGradient id="_Linear17" x1="0" y1="0" x2="1" y2="0" gradientUnits="userSpaceOnUse" gradientTransform="matrix(806.528,-2152.03,-2932.16,-591.945,1733.1,3494.08)"><stop offset="0" style="stop-color:rgb(203,245,0);stop-opacity:1"/><stop offset="0.18" style="stop-color:rgb(155,141,65);stop-opacity:1"/><stop offset="0.39" style="stop-color:rgb(110,42,127);stop-opacity:1"/><stop offset="1" style="stop-color:rgb(91,0,153);stop-opacity:1"/></linearGradient>
        <linearGradient id="_Linear18" x1="0" y1="0" x2="1" y2="0" gradientUnits="userSpaceOnUse" gradientTransform="matrix(4.95624,1115.39,-1081.28,5.11259,1691.13,678.495)"><stop offset="0" style="stop-color:black;stop-opacity:1"/><stop offset="0.58" style="stop-color:rgb(41,2,81);stop-opacity:1"/><stop offset="1" style="stop-color:rgb(60,3,119);stop-opacity:1"/></linearGradient>
        <linearGradient id="_Linear22" x1="0" y1="0" x2="1" y2="0" gradientUnits="userSpaceOnUse" gradientTransform="matrix(334.551,1154.6,-1942.75,198.828,2279.41,657.286)"><stop offset="0" style="stop-color:black;stop-opacity:1"/><stop offset="0.58" style="stop-color:rgb(41,2,81);stop-opacity:1"/><stop offset="1" style="stop-color:rgb(60,3,119);stop-opacity:1"/></linearGradient>
    </defs>
</svg>
