<?xml version="1.0" encoding="UTF-8" standalone="no"?>
<!DOCTYPE svg PUBLIC "-//W3C//DTD SVG 1.1//EN" "http://www.w3.org/Graphics/SVG/1.1/DTD/svg11.dtd">
<svg width="100%" height="100%" viewBox="0 0 3508 4961" version="1.1" xmlns="http://www.w3.org/2000/svg" xmlns:xlink="http://www.w3.org/1999/xlink" xml:space="preserve" xmlns:serif="http://www.serif.com/" style="fill-rule:evenodd;clip-rule:evenodd;stroke-linejoin:round;stroke-miterlimit:2;">
    <g transform="matrix(1,0,0,1.19447,-196.207,-573.279)">
        <path d="M3073.25,1384.35L3073.25,3261.62C3073.25,3387.45 2951.22,3489.61 2800.92,3489.61L1012.33,3489.61C862.025,3489.61 739.998,3387.45 739.998,3261.62L739.998,1384.35C739.998,1258.52 862.025,1156.36 1012.33,1156.36L2800.92,1156.36C2951.22,1156.36 3073.25,1258.52 3073.25,1384.35Z" style="fill:rgb(235,235,235);"/>
    </g>
    <g transform="matrix(1,0,0,1.21639,2.96659,-785.612)">
        <path d="M2653.85,2568.9L2653.85,3298.07C2653.85,3352.16 2600.43,3396.08 2534.63,3396.08L866.619,3396.08C800.816,3396.08 747.392,3352.16 747.392,3298.07L747.392,2568.9C747.392,2514.8 800.816,2470.89 866.619,2470.89L2534.63,2470.89C2600.43,2470.89 2653.85,2514.8 2653.85,2568.9Z" style="fill:rgb(211,211,211);"/>
        <clipPath id="_clip1">
            <path d="M2653.85,2568.9L2653.85,3298.07C2653.85,3352.16 2600.43,3396.08 2534.63,3396.08L866.619,3396.08C800.816,3396.08 747.392,3352.16 747.392,3298.07L747.392,2568.9C747.392,2514.8 800.816,2470.89 866.619,2470.89L2534.63,2470.89C2600.43,2470.89 2653.85,2514.8 2653.85,2568.9Z"/>
        </clipPath>
        <g clip-path="url(#_clip1)">
            <g transform="matrix(1,0,0,1,95.3608,-1.91922)">
                <g transform="matrix(1,0,0,0.822107,-2.96659,645.857)">
                    <path d="M2252.44,1965.36L2252.44,3552.85C2252.44,3561.72 2245.24,3568.92 2236.37,3568.92L2204.24,3568.92C2195.38,3568.92 2188.18,3561.72 2188.18,3552.85L2188.18,1965.36C2188.18,1956.49 2195.38,1949.29 2204.24,1949.29L2236.37,1949.29C2245.24,1949.29 2252.44,1956.49 2252.44,1965.36Z" style="fill:rgb(221,221,221);"/>
                </g>
                <g transform="matrix(1,0,0,0.822107,-412.22,664.674)">
                    <path d="M2252.44,1965.36L2252.44,3552.85C2252.44,3561.72 2245.24,3568.92 2236.37,3568.92L2204.24,3568.92C2195.38,3568.92 2188.18,3561.72 2188.18,3552.85L2188.18,1965.36C2188.18,1956.49 2195.38,1949.29 2204.24,1949.29L2236.37,1949.29C2245.24,1949.29 2252.44,1956.49 2252.44,1965.36Z" style="fill:rgb(221,221,221);"/>
                </g>
                <g transform="matrix(0.00745117,0.70235,-1.32222,0.00948049,5313.46,1191.95)">
                    <path d="M2252.44,1959.67L2252.44,3558.53C2252.44,3564.26 2245.24,3568.92 2236.37,3568.92L2204.24,3568.92C2195.38,3568.92 2188.18,3564.26 2188.18,3558.53L2188.18,1959.67C2188.18,1953.94 2195.38,1949.29 2204.24,1949.29L2236.37,1949.29C2245.24,1949.29 2252.44,1953.94 2252.44,1959.67Z" style="fill:rgb(221,221,221);"/>
                </g>
                <g transform="matrix(0.00745117,0.70235,-1.32222,0.00948049,5269.41,1512.06)">
                    <path d="M2252.44,1959.67L2252.44,3558.53C2252.44,3564.26 2245.24,3568.92 2236.37,3568.92L2204.24,3568.92C2195.38,3568.92 2188.18,3564.26 2188.18,3558.53L2188.18,1959.67C2188.18,1953.94 2195.38,1949.29 2204.24,1949.29L2236.37,1949.29C2245.24,1949.29 2252.44,1953.94 2252.44,1959.67Z" style="fill:rgb(221,221,221);"/>
                </g>
            </g>
            <g transform="matrix(1,0,0,1,-691.481,14.6704)">
                <g transform="matrix(1,0,0,0.822107,-2.96659,645.857)">
                    <path d="M2252.44,1965.36L2252.44,3552.85C2252.44,3561.72 2245.24,3568.92 2236.37,3568.92L2204.24,3568.92C2195.38,3568.92 2188.18,3561.72 2188.18,3552.85L2188.18,1965.36C2188.18,1956.49 2195.38,1949.29 2204.24,1949.29L2236.37,1949.29C2245.24,1949.29 2252.44,1956.49 2252.44,1965.36Z" style="fill:rgb(221,221,221);"/>
                </g>
                <g transform="matrix(1,0,0,0.822107,-412.22,664.674)">
                    <path d="M2252.44,1965.36L2252.44,3552.85C2252.44,3561.72 2245.24,3568.92 2236.37,3568.92L2204.24,3568.92C2195.38,3568.92 2188.18,3561.72 2188.18,3552.85L2188.18,1965.36C2188.18,1956.49 2195.38,1949.29 2204.24,1949.29L2236.37,1949.29C2245.24,1949.29 2252.44,1956.49 2252.44,1965.36Z" style="fill:rgb(221,221,221);"/>
                </g>
            </g>
        </g>
    </g>
    <g transform="matrix(1,0,0,1,-4.4281,-44.0093)">
        <path d="M2607.63,1217L2607.63,1976.18C2607.63,2044.71 2552,2100.35 2483.47,2100.35L925.491,2100.35C856.965,2100.35 801.331,2044.71 801.331,1976.18L801.331,1217C801.331,1148.47 856.965,1092.84 925.491,1092.84L2483.47,1092.84C2552,1092.84 2607.63,1148.47 2607.63,1217Z" style="fill:rgb(210,210,210);"/>
        <clipPath id="_clip2">
            <path d="M2607.63,1217L2607.63,1976.18C2607.63,2044.71 2552,2100.35 2483.47,2100.35L925.491,2100.35C856.965,2100.35 801.331,2044.71 801.331,1976.18L801.331,1217C801.331,1148.47 856.965,1092.84 925.491,1092.84L2483.47,1092.84C2552,1092.84 2607.63,1148.47 2607.63,1217Z"/>
        </clipPath>
        <g clip-path="url(#_clip2)">
            <g transform="matrix(0.906907,0.50023,-0.514901,0.933505,486.151,-700.402)">
                <path d="M1641.19,1414.35C1641.19,1311.74 1692.29,1228.44 1755.22,1228.44C1818.15,1228.44 1869.24,1311.74 1869.24,1414.35C1971.85,1414.35 2055.16,1465.45 2055.16,1528.38C2055.16,1591.31 1971.85,1642.41 1869.24,1642.41C1869.24,1745.02 1818.15,1828.32 1755.22,1828.32C1692.29,1828.32 1641.19,1745.02 1641.19,1642.41C1538.58,1642.41 1455.28,1591.31 1455.28,1528.38C1455.28,1465.45 1538.58,1414.35 1641.19,1414.35Z" style="fill:rgb(247,223,51);"/>
            </g>
            <g transform="matrix(-0.23209,-0.588655,0.605919,-0.238897,1264.18,2746.25)">
                <path d="M1641.19,1414.35C1641.19,1311.74 1692.29,1228.44 1755.22,1228.44C1818.15,1228.44 1869.24,1311.74 1869.24,1414.35C1971.85,1414.35 2055.16,1465.45 2055.16,1528.38C2055.16,1591.31 1971.85,1642.41 1869.24,1642.41C1869.24,1745.02 1818.15,1828.32 1755.22,1828.32C1692.29,1828.32 1641.19,1745.02 1641.19,1642.41C1538.58,1642.41 1455.28,1591.31 1455.28,1528.38C1455.28,1465.45 1538.58,1414.35 1641.19,1414.35Z" style="fill:rgb(0,166,223);"/>
            </g>
            <g transform="matrix(-0.170231,-1.06513,1.07194,-0.17132,806.16,3824.96)">
                <path d="M1641.19,1414.35C1641.19,1311.74 1692.29,1228.44 1755.22,1228.44C1818.15,1228.44 1869.24,1311.74 1869.24,1414.35C1971.85,1414.35 2055.16,1465.45 2055.16,1528.38C2055.16,1591.31 1971.85,1642.41 1869.24,1642.41C1869.24,1745.02 1818.15,1828.32 1755.22,1828.32C1692.29,1828.32 1641.19,1745.02 1641.19,1642.41C1538.58,1642.41 1455.28,1591.31 1455.28,1528.38C1455.28,1465.45 1538.58,1414.35 1641.19,1414.35Z" style="fill:rgb(60,180,0);"/>
            </g>
        </g>
    </g>
    <g transform="matrix(1,0,0,1,4.53334,-29.9014)">
        <circle cx="2106.59" cy="2806.76" r="91.981" style="fill:rgb(248,68,0);"/>
    </g>
    <g transform="matrix(1,0,0,1,-1187.01,375.463)">
        <circle cx="2106.59" cy="2806.76" r="91.981" style="fill:rgb(247,223,51);"/>
    </g>
</svg>
