<?xml version="1.0" encoding="UTF-8" standalone="no"?>
<!DOCTYPE svg PUBLIC "-//W3C//DTD SVG 1.1//EN" "http://www.w3.org/Graphics/SVG/1.1/DTD/svg11.dtd">
<svg width="100%" height="100%" viewBox="0 0 3508 4961" version="1.1" xmlns="http://www.w3.org/2000/svg" xmlns:xlink="http://www.w3.org/1999/xlink" xml:space="preserve" xmlns:serif="http://www.serif.com/" style="fill-rule:evenodd;clip-rule:evenodd;stroke-linecap:round;stroke-linejoin:round;stroke-miterlimit:1.5;">
    <g>
        <g transform="matrix(1,0,0,0.61798,0,1365.97)">
            <path d="M2872.96,3109.8L2872.96,3213.58C2872.96,3413.41 2772.7,3575.65 2649.21,3575.65L808.538,3575.65C685.046,3575.65 584.787,3413.41 584.787,3213.58L584.787,3109.8C584.787,2909.96 685.046,2747.73 808.538,2747.73L2649.21,2747.73C2772.7,2747.73 2872.96,2909.96 2872.96,3109.8Z" style="fill:rgb(245,61,0);"/>
        </g>
        <rect x="958.778" y="3064.01" width="181.107" height="511.639" style="fill:rgb(255,116,70);"/>
        <g transform="matrix(1,0,0,1,318.1,-14.0013)">
            <rect x="958.778" y="3078.01" width="181.107" height="511.639" style="fill:rgb(255,116,70);"/>
        </g>
    </g>
    <g transform="matrix(1,0,0,1,100.964,70.2456)">
        <path d="M1775.42,1502.73C1670.32,1227.46 1932.61,1073.92 1966.26,1054.23" style="fill:none;stroke:rgb(0,151,0);stroke-width:141.64px;"/>
    </g>
    <g transform="matrix(1.11273,0,0,1.03587,-225.899,440.674)">
        <path d="M2342.6,1339.4L2342.6,1681.9C2342.6,1889.17 2185.95,2057.44 1993,2057.44L1598.62,2057.44C1405.67,2057.44 1249.02,1889.17 1249.02,1681.9L1249.02,1339.4C1249.02,1132.13 1405.67,963.863 1598.62,963.863L1993,963.863C2185.95,963.863 2342.6,1132.13 2342.6,1339.4Z" style="fill:rgb(245,61,0);"/>
    </g>
    <g transform="matrix(-0.524384,0.460793,-0.972166,-1.10633,3440.13,1924.21)">
        <path d="M1244.09,1068.42C1265.34,1056.37 1296.77,1049.4 1329.9,1049.4C1363.04,1049.4 1394.47,1056.37 1415.71,1068.42C1456.05,1091.3 1502.18,1117.47 1534.11,1135.59C1558.11,1149.2 1562.95,1168.24 1546.48,1184.16C1514.58,1215.03 1460.03,1267.78 1413.66,1312.62C1398,1327.78 1365.5,1337.38 1329.9,1337.38C1294.31,1337.38 1261.81,1327.78 1246.14,1312.62C1203.03,1270.92 1152.85,1222.39 1120.36,1190.97C1099.61,1170.9 1105.72,1146.92 1135.95,1129.77C1167.03,1112.14 1207.89,1088.96 1244.09,1068.42Z" style="fill:rgb(0,151,0);"/>
    </g>
    <g transform="matrix(-1.08326,0,0,1,3859.83,-503.877)">
        <g transform="matrix(1,0,0,0.61798,0,1365.97)">
            <path d="M2872.96,3109.8L2872.96,3213.58C2872.96,3413.41 2780.41,3575.65 2666.41,3575.65L791.341,3575.65C677.34,3575.65 584.787,3413.41 584.787,3213.58L584.787,3109.8C584.787,2909.96 677.34,2747.73 791.341,2747.73L2666.41,2747.73C2780.41,2747.73 2872.96,2909.96 2872.96,3109.8Z" style="fill:rgb(0,151,0);stroke:rgb(0,183,203);stroke-width:1.13px;"/>
        </g>
        <rect x="958.778" y="3064.01" width="181.107" height="511.639" style="fill:rgb(17,216,143);"/>
        <g transform="matrix(1,0,0,1,318.1,-14.0013)">
            <rect x="958.778" y="3078.01" width="181.107" height="511.639" style="fill:rgb(17,216,143);"/>
        </g>
    </g>
    <g transform="matrix(0.765179,0,0,0.964349,520.268,104.01)">
        <path d="M2222.09,1705.69L2222.09,2270.6C2222.09,2326.59 2164.8,2372.04 2094.25,2372.04C2023.69,2372.04 1966.41,2326.59 1966.41,2270.6L1966.41,1705.69C1966.41,1649.7 2023.69,1604.25 2094.25,1604.25C2164.8,1604.25 2222.09,1649.7 2222.09,1705.69Z" style="fill:rgb(255,116,70);"/>
    </g>
</svg>
