<?xml version="1.0" encoding="UTF-8" standalone="no"?>
<!DOCTYPE svg PUBLIC "-//W3C//DTD SVG 1.1//EN" "http://www.w3.org/Graphics/SVG/1.1/DTD/svg11.dtd">
<svg width="100%" height="100%" viewBox="0 0 3508 4961" version="1.1" xmlns="http://www.w3.org/2000/svg" xmlns:xlink="http://www.w3.org/1999/xlink" xml:space="preserve" xmlns:serif="http://www.serif.com/" style="fill-rule:evenodd;clip-rule:evenodd;stroke-linejoin:round;stroke-miterlimit:2;">
    <g transform="matrix(0.874818,0.78402,-1.15944,1.29372,2589.08,-1364.65)">
        <path d="M1261.2,1518.95C1267.92,1499.07 1294.08,1484.97 1324.24,1484.97C1354.4,1484.97 1380.56,1499.07 1387.28,1518.95C1401.89,1562.14 1416.4,1605.03 1427.54,1637.94C1432.42,1652.37 1427.32,1667.52 1413.67,1679.1C1400.02,1690.68 1379.32,1697.42 1357.42,1697.42L1290.4,1697.42C1268.66,1697.42 1248.11,1690.73 1234.56,1679.24C1221.02,1667.74 1215.95,1652.7 1220.8,1638.38C1231.95,1605.41 1246.52,1562.33 1261.2,1518.95Z" style="fill:rgb(30,100,34);"/>
    </g>
    <g transform="matrix(1,0,0,1,20.1894,33.2901)">
        <path d="M1752.08,1333.17L1752.08,1952.13C1752.08,1987.41 1723.44,2016.06 1688.16,2016.06C1652.88,2016.06 1624.23,1987.41 1624.23,1952.13L1624.23,1333.17C1624.23,1297.89 1652.88,1269.25 1688.16,1269.25C1723.44,1269.25 1752.08,1297.89 1752.08,1333.17Z" style="fill:rgb(0,151,0);"/>
    </g>
    <g transform="matrix(0.930681,-0.903442,1.2748,1.31324,-1755.77,806.526)">
        <path d="M1268.46,1497.49C1274.64,1479.2 1297.71,1466.31 1324.24,1466.31C1350.77,1466.31 1373.84,1479.2 1380.02,1497.49C1396.8,1547.07 1414.16,1598.4 1427.1,1636.64C1432.06,1651.32 1427.27,1666.8 1414.08,1678.65C1400.89,1690.51 1380.76,1697.42 1359.46,1697.42L1290.32,1697.42C1268.71,1697.42 1248.29,1690.4 1234.9,1678.38C1221.52,1666.35 1216.65,1650.64 1221.69,1635.74C1234.59,1597.6 1251.81,1546.69 1268.46,1497.49Z" style="fill:rgb(0,151,0);"/>
    </g>
    <g transform="matrix(-1.17225,5.26232e-17,5.26232e-17,-0.742552,3893.77,4429.52)">
        <path d="M1600.97,2048.68C1646.39,1899.1 1742.15,1803.92 1847.23,1803.92C1952.31,1803.92 2048.07,1899.1 2093.49,2048.68C2192.6,2375.07 2303.58,2740.57 2389.78,3024.44C2421.71,3129.59 2417.21,3253.25 2377.85,3351.93C2338.5,3450.6 2269.81,3510.47 2195.95,3510.47L1528.98,3510.47C1448.53,3510.47 1373.71,3445.26 1330.84,3337.77C1287.98,3230.29 1283.07,3095.59 1317.85,2981.05C1402,2703.94 1506.84,2358.67 1600.97,2048.68Z" style="fill:rgb(245,61,0);"/>
    </g>
    <g transform="matrix(1,0,0,0.696308,271.381,603.047)">
        <ellipse cx="1466.5" cy="2090.14" rx="62.639" ry="127.656" style="fill:rgb(255,99,97);"/>
    </g>
    <g transform="matrix(1,0,0,0.644101,-47.3695,949.187)">
        <ellipse cx="1466.5" cy="2090.14" rx="62.639" ry="127.656" style="fill:rgb(255,99,97);"/>
    </g>
    <g transform="matrix(1,0,0,0.70888,599.825,755.708)">
        <ellipse cx="1466.5" cy="2090.14" rx="62.639" ry="127.656" style="fill:rgb(255,99,97);"/>
    </g>
    <g transform="matrix(0.794283,0,0,0.524498,458.586,1739.28)">
        <ellipse cx="1466.5" cy="2090.14" rx="62.639" ry="127.656" style="fill:rgb(255,99,97);"/>
    </g>
    <g transform="matrix(1,0,0,0.758664,308.115,933.381)">
        <ellipse cx="1466.5" cy="2090.14" rx="62.639" ry="127.656" style="fill:rgb(255,99,97);"/>
    </g>
    <g transform="matrix(0.70153,0,0,0.404529,238.254,1204.82)">
        <ellipse cx="1466.5" cy="2090.14" rx="62.639" ry="127.656" style="fill:rgb(255,99,97);"/>
    </g>
    <g transform="matrix(0.901627,-0.432515,0.432515,0.901627,-667.152,2611.31)">
        <ellipse cx="1248.16" cy="1529.57" rx="493.557" ry="669.313" style="fill:rgb(249,240,231);"/>
    </g>
    <g transform="matrix(0.655558,-0.314474,0.240751,0.501874,2.9693,3229.84)">
        <ellipse cx="1248.16" cy="1529.57" rx="493.557" ry="669.313" style="fill:rgb(254,173,0);"/>
    </g>
</svg>
