<?xml version="1.0" encoding="UTF-8" standalone="no"?>
<!DOCTYPE svg PUBLIC "-//W3C//DTD SVG 1.1//EN" "http://www.w3.org/Graphics/SVG/1.1/DTD/svg11.dtd">
<svg width="100%" height="100%" viewBox="0 0 3508 4961" version="1.1" xmlns="http://www.w3.org/2000/svg" xmlns:xlink="http://www.w3.org/1999/xlink" xml:space="preserve" xmlns:serif="http://www.serif.com/" style="fill-rule:evenodd;clip-rule:evenodd;stroke-linecap:round;stroke-linejoin:round;stroke-miterlimit:1.5;">
    <g transform="matrix(1.08736,0,0,1,-177.464,395.696)">
        <path d="M2772.17,1994.72L2772.17,2809.93C2772.17,3034.89 2604.2,3217.53 2397.32,3217.53L1210.99,3217.53C1004.1,3217.53 836.135,3034.89 836.135,2809.93L836.135,1994.72C836.135,1769.76 1004.1,1587.12 1210.99,1587.12L2397.32,1587.12C2604.2,1587.12 2772.17,1769.76 2772.17,1994.72Z" style="fill:rgb(235,235,235);"/>
        <clipPath id="_clip1">
            <path d="M2772.17,1994.72L2772.17,2809.93C2772.17,3034.89 2604.2,3217.53 2397.32,3217.53L1210.99,3217.53C1004.1,3217.53 836.135,3034.89 836.135,2809.93L836.135,1994.72C836.135,1769.76 1004.1,1587.12 1210.99,1587.12L2397.32,1587.12C2604.2,1587.12 2772.17,1769.76 2772.17,1994.72Z"/>
        </clipPath>
        <g clip-path="url(#_clip1)">
            <g transform="matrix(-1.19401,5.00157e-17,4.59973e-17,-0.889907,3880,3452.58)">
                <path d="M1544.28,1203.09C1655,1066.93 1816.86,1066.93 1927.58,1203.09C2268.28,1622.04 2943.89,2452.85 2943.89,2452.85L527.965,2452.85C527.965,2452.85 1203.58,1622.04 1544.28,1203.09Z" style="fill:none;stroke:rgb(211,211,211);stroke-width:80.66px;"/>
            </g>
        </g>
        <path d="M2772.17,1994.72L2772.17,2809.93C2772.17,3034.89 2604.2,3217.53 2397.32,3217.53L1210.99,3217.53C1004.1,3217.53 836.135,3034.89 836.135,2809.93L836.135,1994.72C836.135,1769.76 1004.1,1587.12 1210.99,1587.12L2397.32,1587.12C2604.2,1587.12 2772.17,1769.76 2772.17,1994.72Z" style="fill:none;stroke:rgb(211,211,211);stroke-width:74.85px;"/>
    </g>
    <g transform="matrix(1,0,0,1,31.2781,3.08306)">
        <circle cx="1035.42" cy="3367.36" r="79.639" style="fill:rgb(255,178,0);stroke:rgb(255,178,0);stroke-width:78.19px;"/>
    </g>
    <g transform="matrix(1,0,0,1,318.101,0.351524)">
        <circle cx="1035.42" cy="3367.36" r="79.639" style="fill:rgb(21,165,34);stroke:rgb(21,165,34);stroke-width:78.19px;"/>
    </g>
</svg>
