<?xml version="1.0" encoding="UTF-8" standalone="no"?>
<!DOCTYPE svg PUBLIC "-//W3C//DTD SVG 1.1//EN" "http://www.w3.org/Graphics/SVG/1.1/DTD/svg11.dtd">
<svg width="100%" height="100%" viewBox="0 0 3508 4961" version="1.1" xmlns="http://www.w3.org/2000/svg" xmlns:xlink="http://www.w3.org/1999/xlink" xml:space="preserve" xmlns:serif="http://www.serif.com/" style="fill-rule:evenodd;clip-rule:evenodd;stroke-linecap:round;stroke-linejoin:round;stroke-miterlimit:1.5;">
    <g transform="matrix(1,0,0,1,-187.056,-23.2242)">
        <path d="M2690.8,1353.79L2690.8,3227.03C2690.8,3398.09 2551.93,3536.95 2380.88,3536.95L1331.41,3536.95C1160.36,3536.95 1021.49,3398.09 1021.49,3227.03L1021.49,1353.79C1021.49,1182.74 1160.36,1043.87 1331.41,1043.87L2380.88,1043.87C2551.93,1043.87 2690.8,1182.74 2690.8,1353.79Z" style="fill:rgb(236,236,236);"/>
    </g>
    <g transform="matrix(1,0,0,1,-60.272,-116.046)">
        <path d="M2280.12,1490.63C2280.12,1512.7 2262.2,1530.62 2240.13,1530.62L1182.07,1530.62C1160,1530.62 1142.08,1512.7 1142.08,1490.63C1142.08,1468.56 1160,1450.64 1182.07,1450.64L2240.13,1450.64C2262.2,1450.64 2280.12,1468.56 2280.12,1490.63Z" style="fill:rgb(191,191,191);"/>
        <g transform="matrix(1,0,0,10.6698,9.30601,-13155.3)">
            <path d="M2280.12,1463.1L2280.12,1518.16C2280.12,1525.04 2220.55,1530.62 2147.17,1530.62L1275.03,1530.62C1201.65,1530.62 1142.08,1525.04 1142.08,1518.16L1142.08,1463.1C1142.08,1456.23 1201.65,1450.64 1275.03,1450.64L2147.17,1450.64C2220.55,1450.64 2280.12,1456.23 2280.12,1463.1Z" style="fill:rgb(204,0,102);"/>
            <clipPath id="_clip1">
                <path d="M2280.12,1463.1L2280.12,1518.16C2280.12,1525.04 2220.55,1530.62 2147.17,1530.62L1275.03,1530.62C1201.65,1530.62 1142.08,1525.04 1142.08,1518.16L1142.08,1463.1C1142.08,1456.23 1201.65,1450.64 1275.03,1450.64L2147.17,1450.64C2220.55,1450.64 2280.12,1456.23 2280.12,1463.1Z"/>
            </clipPath>
            <g clip-path="url(#_clip1)">
                <g transform="matrix(1.29154,0,0,0.0931746,-567.383,1234.37)">
                    <path d="M1974.22,2822.13C1983.84,2838.13 1986.55,2859.38 1981.41,2878.55C1976.28,2897.72 1964,2912.19 1948.81,2916.97C1834.91,2952.78 1606.86,3024.49 1466.3,3068.68C1443.27,3075.93 1419.06,3065.78 1403.62,3042.43C1388.19,3019.08 1384.13,2986.46 1393.12,2957.98C1442.06,2802.95 1511.76,2582.13 1511.76,2582.13L1844.31,2606.23C1844.31,2606.23 1922.71,2736.54 1974.22,2822.13Z" style="fill:rgb(93,28,12);"/>
                </g>
                <g transform="matrix(1,0,0,0.0937228,32.7785,1232.73)">
                    <circle cx="1380.29" cy="2790.89" r="84.335" style="fill:rgb(235,178,128);"/>
                </g>
                <g transform="matrix(1,0,0,0.0937228,394.983,1232.42)">
                    <circle cx="1380.29" cy="2790.89" r="84.335" style="fill:rgb(248,222,199);"/>
                </g>
                <g transform="matrix(1,0,0,0.204208,-115.98,943.28)">
                    <path d="M1878,2618.16L1878,2886.98C1878,2920.09 1819.43,2946.97 1747.29,2946.97L1646.18,2946.97C1574.04,2946.97 1515.46,2920.09 1515.46,2886.98L1515.46,2618.16C1515.46,2585.05 1574.04,2558.17 1646.18,2558.17L1747.29,2558.17C1819.43,2558.17 1878,2585.05 1878,2618.16Z" style="fill:url(#_Linear2);"/>
                </g>
                <g transform="matrix(1,0,0,0.0937228,-9.30601,1232.95)">
                    <path d="M1576.46,2728.23L1576.46,2797.58C1576.46,2812.26 1564.53,2824.19 1549.85,2824.19C1535.16,2824.19 1523.23,2812.26 1523.23,2797.58L1523.23,2728.23C1523.23,2713.54 1535.16,2701.62 1549.85,2701.62C1564.53,2701.62 1576.46,2713.54 1576.46,2728.23Z" style="fill:rgb(235,178,128);"/>
                </g>
                <g transform="matrix(1,0,0,0.0937228,-14.4719,1233.18)">
                    <path d="M1550.89,2861.96C1606.47,2855.4 1631.52,2827.06 1635.62,2796.92" style="fill:none;stroke:rgb(121,0,0);stroke-width:32.15px;"/>
                </g>
                <g transform="matrix(1,0,0,0.0937228,-8.62693,1232.65)">
                    <circle cx="1480.69" cy="2737.28" r="32.618" style="fill:rgb(0,84,172);"/>
                </g>
                <g transform="matrix(0.940577,0,0,0.0881535,80.9803,1247.95)">
                    <circle cx="1480.69" cy="2737.28" r="32.618" style="fill:rgb(0,29,60);"/>
                </g>
                <g transform="matrix(1,0,0,0.0937228,130.715,1232.34)">
                    <circle cx="1480.69" cy="2737.28" r="32.618" style="fill:rgb(0,84,172);"/>
                </g>
                <g transform="matrix(0.909758,0,0,0.0852651,264.241,1255.53)">
                    <circle cx="1480.69" cy="2737.28" r="32.618" style="fill:rgb(0,29,60);"/>
                </g>
                <g transform="matrix(1,0,0,0.0937228,50.966,1243.83)">
                    <circle cx="1418.17" cy="2631.12" r="2.715" style="fill:white;"/>
                </g>
                <g transform="matrix(1,0,0,0.0937228,182.098,1243.65)">
                    <circle cx="1418.17" cy="2631.12" r="2.715" style="fill:white;"/>
                </g>
                <g transform="matrix(0.931149,0,0,0.131354,93.5227,1131.49)">
                    <rect x="1436.83" y="2682.73" width="85.472" height="38.802" style="fill:rgb(248,222,199);"/>
                </g>
                <g transform="matrix(0.931149,0,0,0.146503,235.006,1089.36)">
                    <rect x="1436.83" y="2682.73" width="85.472" height="38.802" style="fill:rgb(248,222,199);"/>
                </g>
                <g transform="matrix(0.604634,0,0,0.0845469,563.368,1257.6)">
                    <path d="M1451.35,2682.15C1468,2647.95 1516.38,2662.72 1511.44,2636.75" style="fill:none;stroke:rgb(235,178,128);stroke-width:19.34px;"/>
                </g>
                <g transform="matrix(-0.558062,0.0218093,0.347181,0.0780346,1503.66,1244.52)">
                    <path d="M1451.35,2682.15C1468,2647.95 1516.38,2662.72 1511.44,2636.75" style="fill:none;stroke:rgb(235,178,128);stroke-width:19.34px;"/>
                </g>
                <g transform="matrix(0.975488,0,0,0.0729514,31.4245,1276.06)">
                    <path d="M1777.46,2780.36L1394.82,2780.36C1375.43,2746.78 1365.22,2708.68 1365.22,2669.9C1365.22,2547.97 1464.21,2448.98 1586.14,2448.98C1708.07,2448.98 1807.06,2547.97 1807.06,2669.9C1807.06,2708.68 1796.85,2746.78 1777.46,2780.36Z" style="fill:rgb(247,255,0);"/>
                </g>
                <g transform="matrix(1,0,0,0.0937228,-9.30601,1232.95)">
                    <circle cx="1380.53" cy="2616.84" r="51.107" style="fill:rgb(247,255,0);"/>
                </g>
                <g transform="matrix(1,0,0,0.0937228,391.696,1233.61)">
                    <circle cx="1380.53" cy="2616.84" r="51.107" style="fill:rgb(247,255,0);"/>
                </g>
                <g transform="matrix(0.603701,0,0,0.0925804,606.276,1246.6)">
                    <path d="M1398,2425.34C1391.62,2348.62 1399.56,2345.02 1466.23,2307.18" style="fill:none;stroke:rgb(208,214,22);stroke-width:17.71px;"/>
                </g>
                <g transform="matrix(-0.603701,0,0,0.0925804,2535.73,1246.3)">
                    <path d="M1398,2425.34C1391.62,2348.62 1399.56,2345.02 1466.23,2307.18" style="fill:none;stroke:rgb(208,214,22);stroke-width:17.71px;"/>
                </g>
                <g transform="matrix(0.936658,0.00449797,-0.0357452,0.0653843,196.657,1308.61)">
                    <path d="M1509.91,2955.35C1546.35,2901.54 1586.79,2939.07 1591.26,2948.9" style="fill:none;stroke:rgb(235,178,128);stroke-width:17.96px;"/>
                </g>
                <g transform="matrix(0.934792,0.03329,-0.355196,0.0876113,1160.94,1207.04)">
                    <path d="M1744.87,3129.94C1848.25,3104.92 1975.78,2976.12 1963,2758.92" style="fill:none;stroke:rgb(248,222,199);stroke-width:134.16px;"/>
                </g>
                <g transform="matrix(1,0,0,0.0937228,50.966,1243.83)">
                    <path d="M1938.38,2829.1C1909.15,2807.03 1913.61,2792.15 1911.55,2769.31" style="fill:none;stroke:rgb(235,178,128);stroke-width:58.41px;"/>
                </g>
                <g transform="matrix(0.980282,-0.0185201,0.197605,0.0918748,-444.316,1287.43)">
                    <path d="M2082.32,2750.52C2052,2812.61 2006.69,2821.98 1997.93,2823.8" style="fill:none;stroke:rgb(235,178,128);stroke-width:58.41px;"/>
                </g>
                <g transform="matrix(1,0,0,0.0937228,50.966,1243.83)">
                    <path d="M2147.04,2812.88C2124.69,2838.7 2101.36,2862.28 2040.26,2860.83" style="fill:none;stroke:rgb(248,222,199);stroke-width:58.41px;"/>
                </g>
                <g transform="matrix(1,0,0,0.126516,67.2765,1147.22)">
                    <path d="M2154.53,2905.26C2125.59,2921.97 2095.05,2953.41 2041.43,2894.92" style="fill:none;stroke:rgb(248,222,199);stroke-width:49.17px;"/>
                </g>
                <g transform="matrix(1.28324,0,0,0.374646,-484.484,469.577)">
                    <ellipse cx="1974.88" cy="2783.2" rx="74.297" ry="16.294" style="fill:rgb(248,222,199);"/>
                </g>
            </g>
        </g>
        <g transform="matrix(1,0,0,1,60.272,116.046)">
            <path d="M1959.63,2852.66C2000.76,2845.86 2016.38,2822.57 2034.76,2854.14" style="fill:none;stroke:rgb(235,178,128);stroke-width:14.5px;"/>
        </g>
        <g transform="matrix(1,0,0,1,1.1559,225.776)">
            <path d="M2280.12,1490.63C2280.12,1512.7 2262.2,1530.62 2240.13,1530.62L1182.07,1530.62C1160,1530.62 1142.08,1512.7 1142.08,1490.63C1142.08,1468.56 1160,1450.64 1182.07,1450.64L2240.13,1450.64C2262.2,1450.64 2280.12,1468.56 2280.12,1490.63Z" style="fill:rgb(191,191,191);"/>
        </g>
        <g transform="matrix(1,0,0,1,40.8517,1875.54)">
            <path d="M2280.12,1490.63C2280.12,1512.7 2262.2,1530.62 2240.13,1530.62L1182.07,1530.62C1160,1530.62 1142.08,1512.7 1142.08,1490.63C1142.08,1468.56 1160,1450.64 1182.07,1450.64L2240.13,1450.64C2262.2,1450.64 2280.12,1468.56 2280.12,1490.63Z" style="fill:rgb(191,191,191);"/>
        </g>
    </g>
    <g transform="matrix(1,0,0,1,-49.3214,339.744)">
        <path d="M2280.12,1490.63C2280.12,1512.7 2262.2,1530.62 2240.13,1530.62L1182.07,1530.62C1160,1530.62 1142.08,1512.7 1142.08,1490.63C1142.08,1468.56 1160,1450.64 1182.07,1450.64L2240.13,1450.64C2262.2,1450.64 2280.12,1468.56 2280.12,1490.63Z" style="fill:rgb(191,191,191);"/>
        <g transform="matrix(0.512193,0,0,1,1110.16,222.292)">
            <path d="M2280.12,1490.63C2280.12,1512.7 2245.13,1530.62 2202.04,1530.62L1220.16,1530.62C1177.07,1530.62 1142.08,1512.7 1142.08,1490.63C1142.08,1468.56 1177.07,1450.64 1220.16,1450.64L2202.04,1450.64C2245.13,1450.64 2280.12,1468.56 2280.12,1490.63Z" style="fill:rgb(191,191,191);"/>
        </g>
        <g transform="matrix(0.379941,0,0,1,723.683,224.196)">
            <path d="M2280.12,1490.63C2280.12,1512.7 2232.96,1530.62 2174.87,1530.62L1247.33,1530.62C1189.24,1530.62 1142.08,1512.7 1142.08,1490.63C1142.08,1468.56 1189.24,1450.64 1247.33,1450.64L2174.87,1450.64C2232.96,1450.64 2280.12,1468.56 2280.12,1490.63Z" style="fill:rgb(191,191,191);"/>
        </g>
    </g>
    <g transform="matrix(1,0,0,0.965912,0,78.8161)">
        <path d="M1519.2,2312.13C1514.55,2409.78 1515.54,2418.24 1516.62,2427.39" style="fill:none;stroke:rgb(208,214,22);stroke-width:14.75px;"/>
    </g>
    <g transform="matrix(1,0,0,1,188.635,62.3727)">
        <path d="M1952.33,2297.2L1952.33,2429.2C1952.33,2465.62 1922.76,2495.2 1886.33,2495.2L1721.32,2495.2C1684.89,2495.2 1655.32,2465.62 1655.32,2429.2L1655.32,2297.2C1655.32,2260.77 1684.89,2231.2 1721.32,2231.2L1886.33,2231.2C1922.76,2231.2 1952.33,2260.77 1952.33,2297.2Z" style="fill:white;"/>
    </g>
    <g transform="matrix(-1.69,-0.000290536,0.000218214,-1.26931,5274.8,5846.87)">
        <path d="M1937.8,2543.64C1940.06,2538.89 1943.99,2536 1948.21,2535.98C1952.44,2535.96 1956.38,2538.81 1958.67,2543.54C1970.1,2567.14 1986.76,2601.56 1986.76,2601.56L1910.2,2601.56C1910.2,2601.56 1926.55,2567.24 1937.8,2543.64Z" style="fill:white;"/>
    </g>
    <path d="M2082.86,2358.72C2082.86,2365.26 2077.55,2370.58 2071,2370.58L1917.64,2370.58C1911.1,2370.58 1905.78,2365.26 1905.78,2358.72C1905.78,2352.17 1911.1,2346.86 1917.64,2346.86L2071,2346.86C2077.55,2346.86 2082.86,2352.17 2082.86,2358.72Z" style="fill:rgb(201,200,200);"/>
    <g transform="matrix(1,0,0,1,0.155306,50.7571)">
        <path d="M2082.86,2358.72C2082.86,2365.26 2077.55,2370.58 2071,2370.58L1917.64,2370.58C1911.1,2370.58 1905.78,2365.26 1905.78,2358.72C1905.78,2352.17 1911.1,2346.86 1917.64,2346.86L2071,2346.86C2077.55,2346.86 2082.86,2352.17 2082.86,2358.72Z" style="fill:rgb(201,200,200);"/>
    </g>
    <g transform="matrix(0.677096,0,0,1,618.225,109.014)">
        <path d="M2082.86,2358.72C2082.86,2365.26 2075.01,2370.58 2065.34,2370.58L1923.3,2370.58C1913.63,2370.58 1905.78,2365.26 1905.78,2358.72C1905.78,2352.17 1913.63,2346.86 1923.3,2346.86L2065.34,2346.86C2075.01,2346.86 2082.86,2352.17 2082.86,2358.72Z" style="fill:rgb(201,200,200);"/>
    </g>
    <defs>
        <linearGradient id="_Linear2" x1="0" y1="0" x2="1" y2="0" gradientUnits="userSpaceOnUse" gradientTransform="matrix(342.551,640.284,-1395.08,157.216,1509.09,2445.3)"><stop offset="0" style="stop-color:rgb(248,222,199);stop-opacity:1"/><stop offset="0.56" style="stop-color:rgb(249,206,169);stop-opacity:1"/><stop offset="1" style="stop-color:rgb(255,145,52);stop-opacity:1"/></linearGradient>
    </defs>
</svg>
