<?xml version="1.0" encoding="UTF-8" standalone="no"?>
<!DOCTYPE svg PUBLIC "-//W3C//DTD SVG 1.1//EN" "http://www.w3.org/Graphics/SVG/1.1/DTD/svg11.dtd">
<svg width="100%" height="100%" viewBox="0 0 3508 4961" version="1.1" xmlns="http://www.w3.org/2000/svg" xmlns:xlink="http://www.w3.org/1999/xlink" xml:space="preserve" xmlns:serif="http://www.serif.com/" style="fill-rule:evenodd;clip-rule:evenodd;stroke-linejoin:round;stroke-miterlimit:2;">
    <path d="M2824.57,1654.03L2824.57,2687.26C2824.57,2972.39 2593.08,3203.88 2307.96,3203.88L1274.73,3203.88C989.602,3203.88 758.115,2972.39 758.115,2687.26L758.115,1654.03C758.115,1368.91 989.602,1137.42 1274.73,1137.42L2307.96,1137.42C2593.08,1137.42 2824.57,1368.91 2824.57,1654.03Z" style="fill:rgb(222,221,218);"/>
    <g transform="matrix(0.838779,0,0,0.838779,104.179,465.682)">
        <path d="M1922.53,1622.76C1943.7,1652.9 1978.22,1670.83 2015.06,1670.83C2051.89,1670.83 2086.41,1652.9 2107.59,1622.76C2298.45,1351.68 2579.02,1370.88 2730.81,1497.43C2909.76,1646.6 2909.76,1944.95 2730.81,2243.29C2619.88,2441.46 2354.57,2639.63 2108.89,2785.98C2051.04,2820.31 1979.07,2820.31 1921.22,2785.98C1675.54,2639.63 1410.23,2441.46 1299.3,2243.29C1120.36,1944.95 1120.36,1646.6 1299.3,1497.43C1451.1,1370.88 1731.66,1351.68 1922.53,1622.76Z" style="fill:rgb(248,68,0);"/>
    </g>
    <g transform="matrix(0.885155,-0.465297,0.465297,0.885155,-798.833,1054.73)">
        <path d="M1295.29,2505.49C1274.68,2463.64 1255.52,2421.39 1238.53,2379.44L2483.94,2379.44C2459.15,2422.75 2426.28,2465.19 2385.99,2505.49L1295.29,2505.49Z" style="fill:rgb(243,170,154);fill-opacity:0.3;"/>
    </g>
    <g transform="matrix(0.885155,-0.465297,0.465297,0.885155,-892.012,882.551)">
        <path d="M1214.64,2505.49C1199.72,2462.47 1187.57,2420.19 1178.99,2379.44L2541.09,2379.44C2541.88,2420.91 2534.29,2463.3 2518.91,2505.49L1214.64,2505.49Z" style="fill:rgb(243,170,154);fill-opacity:0.3;"/>
    </g>
</svg>
