<?xml version="1.0" encoding="UTF-8" standalone="no"?>
<!DOCTYPE svg PUBLIC "-//W3C//DTD SVG 1.1//EN" "http://www.w3.org/Graphics/SVG/1.1/DTD/svg11.dtd">
<svg width="100%" height="100%" viewBox="0 0 3508 4961" version="1.1" xmlns="http://www.w3.org/2000/svg" xmlns:xlink="http://www.w3.org/1999/xlink" xml:space="preserve" xmlns:serif="http://www.serif.com/" style="fill-rule:evenodd;clip-rule:evenodd;stroke-linecap:round;stroke-linejoin:round;stroke-miterlimit:1.5;">
    <g transform="matrix(0.906168,-0.537752,0.606784,1.02249,-888.352,265.532)">
        <path d="M1176.54,1632.28L1176.54,2185.69C1176.54,2221.89 1143.37,2251.29 1102.51,2251.29C1061.66,2251.29 1028.49,2221.89 1028.49,2185.69L1028.49,1632.28C1028.49,1596.08 1061.66,1566.68 1102.51,1566.68C1143.37,1566.68 1176.54,1596.08 1176.54,1632.28Z" style="fill:rgb(238,238,185);"/>
    </g>
    <g transform="matrix(0.565867,-0.888882,0.991129,0.630958,-1346.1,1695.28)">
        <path d="M1176.54,1633.07L1176.54,2184.9C1176.54,2221.54 1143.37,2251.29 1102.51,2251.29C1061.66,2251.29 1028.49,2221.54 1028.49,2184.9L1028.49,1633.07C1028.49,1596.43 1061.66,1566.68 1102.51,1566.68C1143.37,1566.68 1176.54,1596.43 1176.54,1633.07Z" style="fill:rgb(238,238,185);"/>
    </g>
    <g transform="matrix(1.04609,-0.126533,0.142776,1.18038,152.542,-651.085)">
        <path d="M1176.54,1632.28L1176.54,2185.69C1176.54,2221.89 1143.37,2251.29 1102.51,2251.29C1061.66,2251.29 1028.49,2221.89 1028.49,2185.69L1028.49,1632.28C1028.49,1596.08 1061.66,1566.68 1102.51,1566.68C1143.37,1566.68 1176.54,1596.08 1176.54,1632.28Z" style="fill:rgb(238,238,185);"/>
    </g>
    <g transform="matrix(1.01891,0.268605,-0.303086,1.1497,1350.56,-1023.07)">
        <path d="M1176.54,1632.28L1176.54,2185.69C1176.54,2221.89 1143.37,2251.29 1102.51,2251.29C1061.66,2251.29 1028.49,2221.89 1028.49,2185.69L1028.49,1632.28C1028.49,1596.08 1061.66,1566.68 1102.51,1566.68C1143.37,1566.68 1176.54,1596.08 1176.54,1632.28Z" style="fill:rgb(238,238,185);"/>
    </g>
    <g transform="matrix(0.88369,0.573942,-0.64762,0.997131,2429.42,-888.069)">
        <path d="M1176.54,1632.28L1176.54,2185.69C1176.54,2221.89 1143.37,2251.29 1102.51,2251.29C1061.66,2251.29 1028.49,2221.89 1028.49,2185.69L1028.49,1632.28C1028.49,1596.08 1061.66,1566.68 1102.51,1566.68C1143.37,1566.68 1176.54,1596.08 1176.54,1632.28Z" style="fill:rgb(238,238,185);"/>
    </g>
    <g transform="matrix(0.520029,0.916454,-0.83741,0.475176,3437.89,-16.4143)">
        <path d="M1176.54,1647.69L1176.54,2170.28C1176.54,2214.99 1143.37,2251.29 1102.51,2251.29C1061.66,2251.29 1028.49,2214.99 1028.49,2170.28L1028.49,1647.69C1028.49,1602.98 1061.66,1566.68 1102.51,1566.68C1143.37,1566.68 1176.54,1602.98 1176.54,1647.69Z" style="fill:rgb(238,238,185);"/>
    </g>
    <g transform="matrix(1,0,0,1,-84.2936,-262.791)">
        <circle cx="1788.77" cy="2437.56" r="626.726" style="fill:rgb(244,227,95);"/>
    </g>
    <circle cx="1098.6" cy="2245.07" r="172.638" style="fill:rgb(244,227,95);"/>
    <g transform="matrix(1,0,0,1,1233.14,-14.0699)">
        <circle cx="1098.6" cy="2245.07" r="172.638" style="fill:rgb(244,227,95);"/>
    </g>
    <g transform="matrix(0.931294,0,0,0.958957,200.516,110.657)">
        <path d="M2280.43,2254.1C2276.14,2221.19 2275.32,2169.84 2373.02,2166.17" style="fill:none;stroke:rgb(212,196,33);stroke-width:43.5px;"/>
    </g>
    <g transform="matrix(-0.931294,0,0,0.958957,3191.23,146.915)">
        <path d="M2280.43,2254.1C2276.14,2221.19 2275.32,2169.84 2373.02,2166.17" style="fill:none;stroke:rgb(212,196,33);stroke-width:43.5px;"/>
    </g>
    <g transform="matrix(0.788707,0,0,1,248.599,0)">
        <circle cx="1295.56" cy="2125.83" r="118.996" style="fill:white;"/>
    </g>
    <g transform="matrix(1.32692,0,0,1.33843,23.8306,-718.262)">
        <circle cx="1295.56" cy="2125.83" r="118.996" style="fill:white;"/>
    </g>
    <g transform="matrix(1.04279,0,0,1.45039,-79.4724,-972.177)">
        <circle cx="1295.11" cy="2139.24" r="75.709" style="fill:rgb(99,85,23);"/>
    </g>
    <g transform="matrix(1.5101,0,0,1.45039,-211.711,-976.737)">
        <circle cx="1295.11" cy="2139.24" r="75.709" style="fill:rgb(99,85,23);"/>
    </g>
    <g transform="matrix(1,0,0,1,5.96127,1.67173)">
        <ellipse cx="1247.19" cy="2129.21" rx="8.918" ry="10.313" style="fill:rgb(237,238,211);"/>
    </g>
    <g transform="matrix(1,0,0,1,462.36,-6.84249)">
        <ellipse cx="1247.19" cy="2129.21" rx="8.918" ry="10.313" style="fill:rgb(237,238,211);"/>
    </g>
    <g transform="matrix(1.13191,-0.259136,0.444955,1.94357,-1388.52,-1763.62)">
        <circle cx="1417.95" cy="2157.13" r="148.213" style="fill:rgb(232,224,52);fill-opacity:0.64;stroke:rgb(212,196,33);stroke-width:38.9px;"/>
    </g>
    <g transform="matrix(0.644864,0,0,1.30894,491.5,-630.071)">
        <path d="M1610.29,2131.79L1610.29,2280.23C1610.29,2320.01 1544.74,2352.3 1464,2352.3C1383.26,2352.3 1317.71,2320.01 1317.71,2280.23L1317.71,2131.79C1317.71,2092.01 1383.26,2059.72 1464,2059.72C1544.74,2059.72 1610.29,2092.01 1610.29,2131.79Z" style="fill:rgb(158,140,0);"/>
    </g>
    <g transform="matrix(2.16159,0,0,2.08478,-1245.23,-2416.38)">
        <circle cx="1417.95" cy="2157.13" r="148.213" style="fill:rgb(232,224,52);fill-opacity:0.64;stroke:rgb(212,196,33);stroke-width:29.89px;"/>
    </g>
    <g transform="matrix(1,0,0,1,43.9772,-184.125)">
        <circle cx="1990.54" cy="2860.72" r="216.299" style="fill:rgb(194,230,222);"/>
        <path d="M2299.37,3034.98L2299.37,3155.97C2299.37,3189.35 2272.26,3216.46 2238.88,3216.46L1777.19,3216.46C1743.81,3216.46 1716.7,3189.35 1716.7,3155.97L1716.7,3034.98C1716.7,3001.59 1743.81,2974.49 1777.19,2974.49L2238.88,2974.49C2272.26,2974.49 2299.37,3001.59 2299.37,3034.98Z" style="fill:rgb(194,230,222);"/>
        <g transform="matrix(1,0,0,1,-273.534,206.721)">
            <circle cx="1990.54" cy="2860.72" r="216.299" style="fill:rgb(194,230,222);"/>
        </g>
        <g transform="matrix(0.787815,0,0,0.787815,707.465,738.28)">
            <circle cx="1990.54" cy="2860.72" r="216.299" style="fill:rgb(194,230,222);"/>
        </g>
        <g transform="matrix(0.588586,0,0,0.588586,1294.73,1479.91)">
            <circle cx="1990.54" cy="2860.72" r="216.299" style="fill:rgb(194,230,222);"/>
        </g>
        <g transform="matrix(1.15139,0,0,1,-294.857,0)">
            <path d="M2653.3,3247.73C2653.3,3303.98 2613.64,3349.65 2564.78,3349.65L1538.44,3349.65C1489.59,3349.65 1449.92,3303.98 1449.92,3247.73C1449.92,3191.48 1489.59,3145.81 1538.44,3145.81L2564.78,3145.81C2613.64,3145.81 2653.3,3191.48 2653.3,3247.73Z" style="fill:rgb(194,230,222);"/>
        </g>
    </g>
</svg>
